<?xml version="1.0" encoding="utf-8"?>
<!-- Generator: Adobe Illustrator 16.0.3, SVG Export Plug-In . SVG Version: 6.00 Build 0)  -->
<svg version="1.2" baseProfile="tiny" id="Layer_1" xmlns="http://www.w3.org/2000/svg" xmlns:xlink="http://www.w3.org/1999/xlink"
	 x="0px" y="0px" width="570.48px" height="149.52px" viewBox="0 0 570.48 149.52" overflow="visible" xml:space="preserve">
<g>
	<path fill="#000000" d="M265.909,16.149c0,0.327-0.125,0.613-0.374,0.859s-0.54,0.368-0.871,0.368h-9.887v16.464
		c0,0.333-0.123,0.624-0.368,0.874s-0.532,0.374-0.859,0.374c-0.328,0-0.62-0.125-0.876-0.374c-0.257-0.25-0.386-0.541-0.386-0.874
		V17.375h-9.887c-0.332,0-0.622-0.122-0.871-0.368s-0.374-0.532-0.374-0.859c0-0.328,0.125-0.62,0.374-0.877
		c0.249-0.257,0.539-0.386,0.871-0.386h22.264c0.332,0,0.622,0.129,0.871,0.386C265.785,15.529,265.909,15.821,265.909,16.149z"/>
	<path fill="#000000" d="M304.889,32.491c0,0.213-0.048,0.415-0.143,0.604c-0.048,0.119-0.125,0.237-0.231,0.356
		s-0.208,0.213-0.302,0.284c-0.569,0.522-1.233,0.877-1.992,1.067c-0.759,0.19-1.518,0.285-2.276,0.285h-12.909
		c-0.735,0-1.373-0.143-1.914-0.428s-0.98-0.673-1.319-1.161s-0.591-1.042-0.754-1.661c-0.164-0.619-0.245-1.262-0.245-1.929
		c0-0.071,0.005-0.154,0.018-0.25c0.012-0.095,0.018-0.179,0.018-0.25c0-0.238-0.018-0.476-0.054-0.714s-0.113-0.465-0.231-0.679
		c-0.19-0.357-0.494-0.637-0.91-0.839c-0.417-0.203-0.863-0.351-1.339-0.446s-0.958-0.155-1.445-0.179s-0.91-0.036-1.267-0.036
		c-0.356,0-0.785,0.012-1.285,0.036c-0.5,0.024-0.994,0.083-1.481,0.179s-0.934,0.25-1.338,0.464
		c-0.404,0.214-0.702,0.512-0.892,0.893c-0.119,0.238-0.19,0.476-0.213,0.714c-0.024,0.239-0.036,0.489-0.036,0.75v4.285
		c0,0.333-0.125,0.625-0.374,0.875s-0.54,0.375-0.871,0.375c-0.333,0-0.623-0.125-0.872-0.374s-0.374-0.539-0.374-0.871V16.167
		c0-0.332,0.125-0.628,0.374-0.889c0.249-0.261,0.539-0.391,0.872-0.391c0.332,0,0.622,0.13,0.871,0.391
		c0.249,0.261,0.374,0.557,0.374,0.888v8.808c0.758-0.397,1.606-0.654,2.543-0.771c0.936-0.117,1.832-0.176,2.685-0.176
		c0.996,0,1.956,0.071,2.881,0.213c0.924,0.142,1.748,0.415,2.472,0.818c0.723,0.403,1.298,0.966,1.725,1.689
		c0.426,0.724,0.64,1.666,0.64,2.827v0.32c0,0.285,0.023,0.587,0.071,0.907c0.047,0.32,0.13,0.617,0.249,0.889
		c0.118,0.273,0.296,0.492,0.533,0.658s0.534,0.249,0.89,0.249h12.909c0.166,0,0.374-0.005,0.623-0.018
		c0.249-0.012,0.498-0.041,0.747-0.089c0.248-0.047,0.485-0.118,0.711-0.213c0.225-0.095,0.396-0.225,0.516-0.391
		c0.166-0.237,0.355-0.403,0.569-0.498c0.213-0.094,0.391-0.142,0.533-0.142c0.332,0,0.622,0.125,0.871,0.373
		C304.764,31.868,304.889,32.159,304.889,32.491z"/>
	<path fill="#000000" d="M332.309,32.491c0,0.213-0.048,0.415-0.143,0.604c-0.048,0.119-0.125,0.237-0.231,0.356
		s-0.208,0.213-0.302,0.284c-0.569,0.522-1.233,0.877-1.992,1.067c-0.759,0.19-1.518,0.285-2.276,0.285h-17.854
		c-0.948,0-1.908-0.059-2.88-0.178c-0.973-0.119-1.85-0.374-2.632-0.765c-0.783-0.391-1.417-0.948-1.903-1.671
		s-0.729-1.689-0.729-2.899c0-1.209,0.242-2.175,0.729-2.898c0.486-0.723,1.12-1.28,1.903-1.671
		c0.782-0.391,1.659-0.652,2.632-0.783c0.972-0.13,1.932-0.195,2.88-0.195c0.712,0,1.512,0.018,2.401,0.053
		c0.889,0.036,1.725,0.178,2.507,0.427s1.44,0.64,1.974,1.174c0.534,0.533,0.801,1.298,0.801,2.294c0,0.308-0.102,0.575-0.303,0.8
		c-0.201,0.226-0.45,0.421-0.747,0.586c-0.296,0.167-0.604,0.302-0.924,0.409c-0.32,0.106-0.6,0.196-0.836,0.267
		c-1.28,0.451-2.573,0.86-3.877,1.227c-1.304,0.368-2.62,0.729-3.947,1.085c0.474,0.095,0.96,0.16,1.458,0.195
		s0.996,0.053,1.493,0.053h17.854c0.166,0,0.374-0.005,0.623-0.018c0.249-0.012,0.498-0.041,0.747-0.089
		c0.248-0.047,0.485-0.118,0.711-0.213c0.225-0.095,0.396-0.225,0.516-0.391c0.166-0.237,0.355-0.403,0.569-0.498
		c0.213-0.094,0.391-0.142,0.533-0.142c0.332,0,0.622,0.125,0.871,0.373C332.184,31.868,332.309,32.159,332.309,32.491z
		 M314.455,27.37c-0.19-0.248-0.504-0.427-0.942-0.538c-0.439-0.111-0.913-0.192-1.423-0.241c-0.511-0.049-1.002-0.075-1.477-0.075
		c-0.474,0-0.842,0-1.103,0c-0.355,0-0.8,0.013-1.333,0.038c-0.533,0.025-1.062,0.093-1.583,0.204
		c-0.521,0.111-1.008,0.271-1.458,0.479c-0.45,0.208-0.782,0.501-0.996,0.88c-0.118,0.237-0.195,0.475-0.23,0.711
		c-0.036,0.237-0.054,0.486-0.054,0.747c0,0.309,0.035,0.605,0.106,0.889c1.067-0.284,2.128-0.569,3.184-0.854
		c1.055-0.284,2.116-0.592,3.183-0.925c0.688-0.189,1.375-0.391,2.063-0.604S313.767,27.63,314.455,27.37z"/>
</g>
<g>
	<path fill="#000000" d="M95.295,63.681c0,3.927-0.586,7.489-1.757,10.686c-1.172,3.199-3.341,6.096-6.507,8.692
		c-2.027,1.647-4.417,2.978-7.171,3.989c-2.755,1.014-5.652,1.79-8.691,2.327c-3.04,0.539-6.064,0.888-9.072,1.045
		c-3.008,0.157-5.747,0.237-8.216,0.237s-5.209-0.08-8.217-0.237c-3.008-0.157-6.017-0.506-9.024-1.045
		c-3.008-0.537-5.889-1.313-8.644-2.327c-2.754-1.012-5.146-2.342-7.171-3.989c-3.167-2.596-5.336-5.493-6.507-8.692
		c-1.172-3.197-1.757-6.759-1.757-10.686c0-3.926,0.585-7.488,1.757-10.687c1.171-3.197,3.339-6.063,6.507-8.596
		c2.026-1.646,4.417-2.976,7.171-3.99c2.755-1.012,5.636-1.789,8.644-2.327c3.007-0.537,6.016-0.902,9.024-1.092
		c3.007-0.19,5.747-0.285,8.217-0.285s5.208,0.095,8.216,0.285c3.007,0.19,6.032,0.555,9.072,1.092
		c3.04,0.539,5.937,1.315,8.691,2.327c2.754,1.014,5.144,2.344,7.171,3.99c3.166,2.533,5.334,5.399,6.507,8.596
		C94.708,56.193,95.295,59.755,95.295,63.681z M88.646,63.634c0-1.523-0.08-3.047-0.237-4.57c-0.159-1.523-0.586-3.015-1.284-4.475
		c-1.269-2.666-3.25-4.745-5.946-6.237c-2.695-1.491-5.645-2.618-8.846-3.379c-3.203-0.761-6.452-1.221-9.75-1.38
		c-3.298-0.159-6.183-0.239-8.656-0.239c-2.41,0-5.232,0.08-8.466,0.239c-3.234,0.159-6.437,0.588-9.607,1.286
		c-3.17,0.697-6.088,1.762-8.75,3.189c-2.663,1.428-4.661,3.412-5.992,5.95c-0.761,1.46-1.269,3.014-1.522,4.665
		s-0.38,3.301-0.38,4.952s0.126,3.317,0.38,4.999c0.254,1.683,0.761,3.253,1.522,4.712c1.332,2.54,3.329,4.524,5.992,5.952
		c2.663,1.428,5.581,2.492,8.75,3.189c3.17,0.697,6.374,1.127,9.607,1.285c3.234,0.159,6.056,0.237,8.466,0.237
		c2.473,0,5.358-0.078,8.656-0.237c3.298-0.158,6.547-0.618,9.75-1.38c3.201-0.762,6.15-1.889,8.846-3.38s4.677-3.571,5.946-6.238
		c0.697-1.459,1.125-2.965,1.284-4.521C88.565,66.697,88.646,65.158,88.646,63.634z"/>
	<path fill="#000000" d="M201.682,83.628c0,0.57-0.127,1.109-0.38,1.615c-0.128,0.317-0.333,0.634-0.618,0.95
		c-0.285,0.317-0.555,0.569-0.807,0.76c-1.52,1.394-3.293,2.344-5.319,2.85c-2.028,0.508-4.054,0.76-6.08,0.76h-31.821
		c-4.877,0-8.613-2.026-11.208-6.079c-0.95,1.33-2.154,2.391-3.61,3.182c-1.458,0.793-3.008,1.41-4.654,1.853
		c-1.647,0.443-3.325,0.729-5.034,0.854c-1.71,0.128-3.325,0.19-4.845,0.19c-2.597,0-5.129-0.19-7.599-0.57
		s-4.671-1.092-6.602-2.137c-1.933-1.045-3.483-2.532-4.655-4.465c-1.172-1.931-1.757-4.447-1.757-7.551V64.346
		c0-0.886,0.333-1.663,0.998-2.327c0.665-0.665,1.44-0.998,2.327-0.998c0.886,0,1.663,0.333,2.327,0.998
		c0.665,0.665,0.998,1.441,0.998,2.327V75.84c0,0.697,0.031,1.346,0.095,1.947c0.062,0.602,0.252,1.219,0.57,1.852
		c0.506,1.014,1.297,1.805,2.375,2.375c1.076,0.569,2.264,0.997,3.562,1.282c1.297,0.285,2.612,0.46,3.942,0.522
		c1.33,0.063,2.47,0.095,3.419,0.095s2.09-0.031,3.419-0.095c1.33-0.063,2.644-0.237,3.942-0.522
		c1.297-0.285,2.484-0.713,3.562-1.282c1.076-0.57,1.867-1.361,2.375-2.375c0.316-0.633,0.506-1.25,0.57-1.852
		c0.062-0.602,0.095-1.25,0.095-1.947v-8.645c0-0.19,0.015-0.347,0.047-0.475c0.031-0.126,0.048-0.252,0.048-0.38
		c0.062-0.316,0.079-0.665,0.047-1.045c-0.033-0.38-0.017-0.727,0.047-1.045c0.126-0.886,0.475-1.629,1.045-2.232
		c0.57-0.602,1.33-0.903,2.28-0.903h0.19c0.886,0,1.551,0.175,1.995,0.522c0.442,0.349,0.744,0.808,0.902,1.377
		c0.158,0.57,0.238,1.188,0.238,1.853c0,0.665,0,1.315,0,1.947c0,1.394,0.079,3.072,0.237,5.034
		c0.157,1.964,0.522,3.848,1.092,5.652c0.57,1.805,1.425,3.324,2.565,4.559c1.14,1.235,2.691,1.853,4.654,1.853h31.821
		c0.442,0,0.998-0.015,1.663-0.047c0.665-0.031,1.33-0.11,1.995-0.238c0.665-0.126,1.297-0.315,1.9-0.569
		c0.601-0.253,1.06-0.602,1.377-1.045c0.442-0.633,0.95-1.076,1.52-1.33c0.57-0.252,1.045-0.38,1.425-0.38
		c0.886,0,1.662,0.332,2.327,0.997S201.682,82.743,201.682,83.628z"/>
	<path fill="#000000" d="M265.513,49.1c0,0.876-0.333,1.657-0.998,2.342c-0.665,0.687-1.441,1.03-2.327,1.03h-64.592
		c-0.128,1.458-0.223,2.93-0.285,4.417c-0.064,1.489-0.095,2.961-0.095,4.417c0,1.71,0.079,3.864,0.238,6.459
		c0.157,2.597,0.584,5.082,1.282,7.457c0.696,2.375,1.741,4.417,3.135,6.127c1.392,1.71,3.325,2.564,5.794,2.564h35.241
		c0.442,0,0.998-0.015,1.662-0.047c0.665-0.031,1.33-0.11,1.995-0.238c0.665-0.126,1.297-0.315,1.899-0.569
		c0.601-0.253,1.06-0.602,1.377-1.045c0.442-0.633,0.95-1.076,1.52-1.33c0.57-0.252,1.045-0.38,1.425-0.38
		c0.886,0,1.662,0.332,2.327,0.997s0.998,1.441,0.998,2.327c0,0.57-0.128,1.109-0.38,1.615c-0.127,0.317-0.332,0.634-0.617,0.95
		c-0.285,0.317-0.555,0.569-0.808,0.76c-1.52,1.394-3.293,2.344-5.319,2.85c-2.027,0.508-4.053,0.76-6.079,0.76h-35.241
		c-3.737,0-6.725-0.997-8.963-2.992c-2.24-1.995-3.969-4.479-5.186-7.457c-1.217-2.976-2.014-6.174-2.388-9.593
		c-0.374-3.42-0.561-6.554-0.561-9.404c0-1.456,0.031-2.897,0.095-4.322c0.063-1.425,0.158-2.865,0.285-4.322h-18.048
		c-0.886,0-1.663-0.343-2.327-1.03c-0.665-0.686-0.998-1.466-0.998-2.342c0-0.873,0.333-1.637,0.998-2.293
		c0.665-0.656,1.441-0.984,2.327-0.984h18.797c0.125-1.086,0.25-2.158,0.374-3.215c0.125-1.055,0.312-2.127,0.563-3.216
		c0.187-0.831,0.561-1.502,1.124-2.014c0.561-0.512,1.279-0.769,2.154-0.769c0.874,0,1.643,0.353,2.306,1.057
		c0.662,0.704,0.995,1.503,0.995,2.398c0,0.704-0.111,1.647-0.333,2.832c-0.223,1.184-0.396,2.159-0.522,2.927h63.833
		c0.886,0,1.662,0.328,2.327,0.984C265.18,47.463,265.513,48.228,265.513,49.1z"/>
	<path fill="#000000" d="M340.744,83.628c0,0.57-0.129,1.109-0.381,1.615c-0.127,0.317-0.332,0.634-0.617,0.95
		c-0.285,0.317-0.555,0.569-0.809,0.76c-1.52,1.394-3.293,2.344-5.318,2.85c-2.027,0.508-4.053,0.76-6.08,0.76h-54.523
		c-2.407,0-4.939-0.19-7.599-0.57s-5.067-1.171-7.219-2.374v53.573c0,0.887-0.333,1.662-0.998,2.327
		c-0.665,0.665-1.441,0.998-2.327,0.998c-0.888,0-1.662-0.333-2.327-0.998s-0.998-1.44-0.998-2.327V63.681
		c0-0.886,0.333-1.662,0.998-2.327s1.439-0.998,2.327-0.998c1.076,0,1.9,0.344,2.47,1.033c0.57,0.688,0.855,1.535,0.855,2.535
		c2.216-1.248,4.702-2.043,7.457-2.388c2.755-0.343,5.398-0.515,7.932-0.515c2.596,0,5.177,0.175,7.742,0.522
		c2.564,0.349,4.892,1.045,6.981,2.09c2.09,1.045,3.783,2.533,5.082,4.464c1.297,1.933,1.947,4.512,1.947,7.742
		c0,1.457-0.158,2.865-0.475,4.227c-0.318,1.362-0.887,2.645-1.709,3.847h34.385c0.443,0,0.998-0.015,1.662-0.047
		c0.666-0.031,1.33-0.11,1.996-0.238c0.664-0.126,1.297-0.315,1.898-0.569c0.602-0.253,1.061-0.602,1.379-1.045
		c0.441-0.633,0.949-1.076,1.52-1.33c0.57-0.252,1.045-0.38,1.424-0.38c0.887,0,1.662,0.332,2.328,0.997
		C340.41,81.966,340.744,82.743,340.744,83.628z M288.689,75.792c0-0.7-0.047-1.384-0.143-2.053
		c-0.096-0.668-0.332-1.321-0.713-1.959c-0.57-0.954-1.457-1.719-2.659-2.292c-1.204-0.573-2.502-0.987-3.895-1.242
		c-1.394-0.255-2.788-0.414-4.18-0.478c-1.394-0.064-2.565-0.097-3.515-0.097c-1.014,0-2.232,0.033-3.657,0.097
		s-2.85,0.239-4.274,0.525s-2.74,0.748-3.942,1.385c-1.204,0.638-2.059,1.498-2.565,2.58c-0.253,0.573-0.413,1.147-0.475,1.72
		c-0.064,0.573-0.095,1.178-0.095,1.814c0,0.639,0.031,1.244,0.095,1.817c0.062,0.573,0.221,1.146,0.475,1.719
		c0.506,1.083,1.361,1.942,2.565,2.579c1.202,0.639,2.517,1.101,3.942,1.387s2.85,0.462,4.274,0.525s2.644,0.095,3.657,0.095
		c0.95,0,2.121-0.031,3.515-0.095c1.392-0.063,2.786-0.223,4.18-0.478c1.392-0.256,2.69-0.67,3.895-1.243
		c1.202-0.572,2.089-1.337,2.659-2.293c0.381-0.637,0.617-1.289,0.713-1.959C288.643,77.178,288.689,76.493,288.689,75.792z"/>
	<path fill="#000000" d="M419.963,64.298c0,0.876-0.332,1.657-0.997,2.342c-0.665,0.687-1.441,1.03-2.327,1.03h-38.471
		c-0.888,0-1.741,0.049-2.562,0.144c-0.822,0.095-1.639,0.301-2.449,0.619c0.624,1.082,1.062,2.259,1.311,3.529
		c0.25,1.272,0.376,2.544,0.376,3.816c0,3.243-0.65,5.834-1.947,7.774c-1.299,1.939-2.992,3.435-5.082,4.482
		c-2.09,1.049-4.417,1.733-6.981,2.051c-2.565,0.317-5.146,0.477-7.742,0.477c-2.533,0-5.098-0.157-7.693-0.475
		c-2.598-0.316-4.939-0.998-7.029-2.043s-3.785-2.531-5.082-4.464c-1.299-1.932-1.947-4.513-1.947-7.741
		c0-3.23,0.649-5.81,1.951-7.742c1.302-1.931,3-3.419,5.096-4.464s4.443-1.741,7.047-2.09c2.604-0.347,5.174-0.522,7.715-0.522
		c2.476,0,5.03,0.159,7.666,0.475c2.635,0.317,5.063,1.044,7.286,2.185c1.437-1.076,3.03-1.789,4.782-2.137
		c1.751-0.347,3.513-0.522,5.286-0.522h38.471c0.886,0,1.662,0.328,2.327,0.984C419.631,62.662,419.963,63.426,419.963,64.298z
		 M368.194,75.792c0-1.145-0.097-2.084-0.286-2.818c-0.19-0.731-0.699-1.543-1.524-2.437c-0.636-0.635-1.526-1.145-2.669-1.527
		s-2.365-0.669-3.669-0.861c-1.303-0.19-2.573-0.317-3.812-0.381c-1.239-0.064-2.272-0.097-3.098-0.097
		c-1.017,0-2.239,0.033-3.669,0.097c-1.429,0.064-2.875,0.239-4.335,0.525c-1.462,0.287-2.796,0.748-4.003,1.385
		c-1.207,0.638-2.064,1.498-2.572,2.58c-0.254,0.573-0.412,1.147-0.475,1.72c-0.064,0.573-0.095,1.178-0.095,1.814
		c0,0.639,0.03,1.244,0.095,1.817c0.063,0.573,0.221,1.146,0.475,1.719c0.508,1.083,1.365,1.942,2.574,2.579
		c1.206,0.639,2.54,1.101,4.001,1.387c1.46,0.286,2.906,0.462,4.337,0.525c1.43,0.063,2.652,0.095,3.669,0.095
		c1.015,0,2.238-0.031,3.669-0.095c1.43-0.063,2.858-0.239,4.288-0.525c1.429-0.286,2.747-0.748,3.955-1.387
		c1.207-0.637,2.064-1.496,2.573-2.579c0.253-0.573,0.411-1.146,0.476-1.719C368.162,77.036,368.194,76.43,368.194,75.792z"/>
	<path fill="#000000" d="M497.854,83.628c0,0.57-0.127,1.109-0.38,1.615c-0.127,0.317-0.332,0.634-0.617,0.95
		c-0.285,0.317-0.555,0.569-0.808,0.76c-1.52,1.394-3.293,2.344-5.319,2.85c-2.027,0.508-4.053,0.76-6.079,0.76h-48.635
		c-0.949,0-1.742-0.316-2.374-0.95c-0.634-0.632-0.95-1.425-0.95-2.374c0-0.887,0.285-1.63,0.854-2.232
		c0.57-0.602,1.298-0.965,2.186-1.093c1.52-0.252,2.928-0.774,4.227-1.567c1.297-0.791,1.947-2.104,1.947-3.941
		c0-1.076-0.508-2.138-1.52-3.183c-1.014-1.045-2.201-2.026-3.563-2.944c-1.362-0.917-2.755-1.741-4.18-2.47
		c-1.425-0.728-2.55-1.25-3.372-1.567l-11.304,17.192c-0.634,1.015-1.457,1.853-2.47,2.518c-1.014,0.665-2.09,1.188-3.229,1.567
		s-2.313,0.65-3.515,0.808c-1.203,0.158-2.374,0.237-3.515,0.237c-0.886,0-1.662-0.332-2.327-0.997s-0.997-1.44-0.997-2.327
		s0.332-1.663,0.997-2.327c0.665-0.665,1.441-0.998,2.327-0.998c0.38,0,0.918-0.031,1.615-0.095
		c0.696-0.063,1.408-0.174,2.137-0.333c0.728-0.157,1.409-0.38,2.043-0.664c0.632-0.285,1.076-0.618,1.329-0.998l16.054-24.412
		c0.632-1.012,1.582-1.52,2.85-1.52c0.886,0,1.662,0.333,2.327,0.997c0.665,0.665,0.997,1.441,0.997,2.328
		c0,0.697-0.175,1.298-0.522,1.805c-0.349,0.507-0.681,1.014-0.997,1.52c1.52,0.634,3.197,1.473,5.034,2.518
		c1.836,1.045,3.529,2.232,5.082,3.562c1.551,1.33,2.85,2.818,3.895,4.464c1.045,1.647,1.567,3.419,1.567,5.32
		c0,0.949-0.095,1.885-0.285,2.802c-0.189,0.919-0.538,1.821-1.045,2.707h37.331c0.442,0,0.997-0.015,1.662-0.047
		c0.665-0.031,1.33-0.11,1.995-0.238c0.665-0.126,1.297-0.315,1.899-0.569c0.602-0.253,1.06-0.602,1.378-1.045
		c0.442-0.633,0.949-1.076,1.52-1.33c0.57-0.252,1.045-0.38,1.425-0.38c0.886,0,1.662,0.332,2.327,0.997
		S497.854,82.743,497.854,83.628z"/>
	<path fill="#000000" d="M561.687,49.1c0,0.876-0.333,1.657-0.997,2.342c-0.665,0.687-1.441,1.03-2.327,1.03H493.77
		c-0.128,1.458-0.223,2.93-0.285,4.417c-0.063,1.489-0.095,2.961-0.095,4.417c0,1.71,0.078,3.864,0.237,6.459
		c0.157,2.597,0.585,5.082,1.282,7.457c0.696,2.375,1.741,4.417,3.135,6.127c1.392,1.71,3.324,2.564,5.794,2.564h35.241
		c0.442,0,0.997-0.015,1.662-0.047c0.665-0.031,1.33-0.11,1.995-0.238c0.665-0.126,1.297-0.315,1.899-0.569
		c0.602-0.253,1.06-0.602,1.378-1.045c0.441-0.633,0.949-1.076,1.52-1.33c0.569-0.252,1.045-0.38,1.425-0.38
		c0.886,0,1.662,0.332,2.327,0.997s0.997,1.441,0.997,2.327c0,0.57-0.127,1.109-0.38,1.615c-0.127,0.317-0.332,0.634-0.617,0.95
		c-0.285,0.317-0.555,0.569-0.808,0.76c-1.52,1.394-3.293,2.344-5.319,2.85c-2.027,0.508-4.053,0.76-6.079,0.76h-35.241
		c-3.737,0-6.725-0.997-8.963-2.992c-2.239-1.995-3.969-4.479-5.186-7.457c-1.217-2.976-2.015-6.174-2.389-9.593
		c-0.374-3.42-0.561-6.554-0.561-9.404c0-1.456,0.031-2.897,0.095-4.322c0.063-1.425,0.157-2.865,0.285-4.322h-18.048
		c-0.886,0-1.662-0.343-2.327-1.03c-0.665-0.686-0.997-1.466-0.997-2.342c0-0.873,0.332-1.637,0.997-2.293
		c0.665-0.656,1.441-0.984,2.327-0.984h18.797c0.125-1.086,0.25-2.158,0.374-3.215c0.125-1.055,0.313-2.127,0.563-3.216
		c0.187-0.831,0.561-1.502,1.123-2.014c0.562-0.512,1.279-0.769,2.153-0.769s1.644,0.353,2.307,1.057
		c0.662,0.704,0.994,1.503,0.994,2.398c0,0.704-0.111,1.647-0.332,2.832c-0.223,1.184-0.396,2.159-0.522,2.927h63.833
		c0.886,0,1.662,0.328,2.327,0.984C561.354,47.463,561.687,48.228,561.687,49.1z"/>
</g>
</svg>
